HIERARCHY
ROOT SpineBase
{
  OFFSET 0.000000 0.000000 0.000000
  CHANNELS 6 Xposition Yposition Zposition Zrotation Xrotation Yrotation
  JOINT SpineMid
  {
    OFFSET 0.000000 27.139923 0.000000
    CHANNELS 3 Zrotation Xrotation Yrotation
    JOINT SpineShoulder
    {
      OFFSET -0.081177 20.186974 -0.609867
      CHANNELS 3 Zrotation Xrotation Yrotation
      JOINT Neck
      {
        OFFSET -0.036791 6.697740 -0.481612
        CHANNELS 3 Zrotation Xrotation Yrotation
        JOINT Head
        {
          OFFSET -4.582952 12.073693 -1.228152
          CHANNELS 3 Zrotation Xrotation Yrotation
          End Site
          {
            OFFSET 0 0 0
          }
        }
      }
      JOINT ShoulderLeft
      {
        OFFSET -13.230114 -3.856536 5.874408
        CHANNELS 3 Zrotation Xrotation Yrotation
        JOINT ElbowLeft
        {
          OFFSET -1.408021 -17.760637 0.814896
          CHANNELS 3 Zrotation Xrotation Yrotation
          JOINT WristLeft
          {
            OFFSET 5.622895 -2.528245 -24.945570
            CHANNELS 3 Zrotation Xrotation Yrotation
            JOINT HandLeft
            {
              OFFSET 2.575993 0.650511 -4.459315
              CHANNELS 3 Zrotation Xrotation Yrotation
              JOINT HandTipLeft
              {
                OFFSET 1.598629 -0.305255 -2.580947
                CHANNELS 3 Zrotation Xrotation Yrotation
                End Site
                {
                  OFFSET 0 0 0
                }
              }
              JOINT ThumbLeft
              {
                OFFSET 5.367520 0.427385 -0.672145
                CHANNELS 3 Zrotation Xrotation Yrotation
                End Site
                {
                  OFFSET 0 0 0
                }
              }
            }
          }
        }
      }
      JOINT ShoulderRight
      {
        OFFSET 9.525132 -2.373611 -8.472315
        CHANNELS 3 Zrotation Xrotation Yrotation
        JOINT ElbowRight
        {
          OFFSET 7.843728 -19.039632 -2.598877
          CHANNELS 3 Zrotation Xrotation Yrotation
          JOINT WristRight
          {
            OFFSET -21.972596 -1.760091 -10.544871
            CHANNELS 3 Zrotation Xrotation Yrotation
            JOINT HandRight
            {
              OFFSET -3.188890 -0.562222 -0.440586
              CHANNELS 3 Zrotation Xrotation Yrotation
              JOINT HandTipRight
              {
                OFFSET -4.657817 -1.045156 1.970049
                CHANNELS 3 Zrotation Xrotation Yrotation
                End Site
                {
                  OFFSET 0 0 0
                }
              }
              JOINT ThumbRight
              {
                OFFSET -3.011080 -1.366187 0.106469
                CHANNELS 3 Zrotation Xrotation Yrotation
                End Site
                {
                  OFFSET 0 0 0
                }
              }
            }
          }
        }
      }
    }
  }
  JOINT HipLeft
  {
    OFFSET -5.347884 0.129174 -0.532009
    CHANNELS 3 Zrotation Xrotation Yrotation
    JOINT KneeLeft
    {
      OFFSET 4.061589 -33.461889 3.434196
      CHANNELS 3 Zrotation Xrotation Yrotation
      JOINT AnkleLeft
      {
        OFFSET 6.372755 -30.263313 5.624383
        CHANNELS 3 Zrotation Xrotation Yrotation
        JOINT FootLeft
        {
          OFFSET 1.386071 -6.688695 -6.375717
          CHANNELS 3 Zrotation Xrotation Yrotation
          End Site
          {
            OFFSET 0 0 0
          }
        }
      }
    }
  }
  JOINT HipRight
  {
    OFFSET 5.027266 1.344831 -5.738966
    CHANNELS 3 Zrotation Xrotation Yrotation
    JOINT KneeRight
    {
      OFFSET 6.094820 -33.061638 0.789126
      CHANNELS 3 Zrotation Xrotation Yrotation
      JOINT AnkleRight
      {
        OFFSET 0.642494 -33.078686 8.215569
        CHANNELS 3 Zrotation Xrotation Yrotation
        JOINT FootRight
        {
          OFFSET -4.438762 -3.597138 -7.985591
          CHANNELS 3 Zrotation Xrotation Yrotation
          End Site
          {
            OFFSET 0 0 0
          }
        }
      }
    }
  }
}
MOTION
Frames: 10
Frame Time: 0.033333
17.213419 70.638413 368.793226 -0.881240 -0.820070 29.072547 0.160262 -0.035407 -29.104544 0.144672 0.046408 -0.021390 2.451508 1.129815 0.352592 0.000000 0.000000 0.000000 2.866891 -8.490185 1.032487 -28.316740 -67.627402 -9.125741 -14.761318 -4.444682 17.070692 4.457054 21.322933 -7.108059 0.000000 0.000000 0.000000 0.000000 0.000000 0.000000 37.921313 74.673232 0.560556 -89.393298 -12.351099 -23.882487 -4.719691 -11.268562 -14.220004 8.657375 -14.591062 -15.643289 0.000000 0.000000 0.000000 0.000000 0.000000 0.000000 4.924228 2.109173 -28.499235 -2.853134 -2.460323 -0.639497 -21.445165 -0.918742 21.247839 0.000000 0.000000 0.000000 4.763860 1.910375 -28.512861 0.869515 -0.534730 0.258691 -0.464013 -10.291367 3.086540 0.000000 0.000000 0.000000
17.185676 70.633047 368.914889 -0.914827 -0.954972 29.524219 0.173038 0.011424 -29.559018 0.146795 0.073361 -0.023089 2.435568 1.315657 0.394211 0.000000 0.000000 0.000000 2.869192 -8.367316 1.022037 -30.561397 -67.707336 -12.349087 -10.957969 -8.290530 21.663116 3.914534 26.842659 -13.032362 0.000000 0.000000 0.000000 0.000000 0.000000 0.000000 38.206917 74.589147 0.324210 -89.981482 -12.070750 -22.759851 -4.442964 -9.581782 -17.337695 13.515775 -15.345598 -14.277013 0.000000 0.000000 0.000000 0.000000 0.000000 0.000000 5.094942 2.175556 -28.951335 -2.486540 -2.108193 -0.470786 -23.215642 10.864072 24.868663 0.000000 0.000000 0.000000 4.973393 1.947315 -28.966344 1.538640 -0.084016 0.459285 1.915200 -17.675228 6.921762 0.000000 0.000000 0.000000
17.203780 70.636918 368.986229 -0.887984 -1.009906 29.872383 0.141037 0.028250 -29.907694 0.138665 0.080250 -0.024082 2.345570 1.415541 0.403772 0.000000 0.000000 0.000000 2.835049 -8.274619 1.011125 -31.664039 -68.504602 -13.425721 -8.740129 -9.552263 24.057897 3.736230 28.980585 -15.140807 0.000000 0.000000 0.000000 0.000000 0.000000 0.000000 38.210591 74.441192 0.295112 -90.422677 -11.716025 -21.804158 -4.554780 -6.466450 -21.477964 7.544717 -16.348816 -13.763146 0.000000 0.000000 0.000000 0.000000 0.000000 0.000000 5.030719 2.097089 -29.316037 -2.124678 -1.735173 -0.319536 -25.026581 20.829622 28.029529 0.000000 0.000000 0.000000 4.955993 1.869602 -29.333818 1.776235 0.140542 0.543409 6.322277 -25.845323 13.021670 0.000000 0.000000 0.000000
17.266888 70.645498 368.996122 -0.799371 -0.974999 30.110374 0.073919 0.015813 -30.143475 0.122510 0.066920 -0.023781 2.107151 1.492212 0.404238 0.000000 0.000000 0.000000 2.756917 -8.331088 1.010256 -31.105482 -69.458458 -12.049209 -7.255719 -7.672130 24.751164 1.907839 27.320926 -14.484710 0.000000 0.000000 0.000000 0.000000 0.000000 0.000000 38.096517 74.393619 0.352941 -91.003996 -10.811364 -21.066568 -2.403909 -8.453799 -22.322001 -1.179920 -15.898945 -13.699101 0.000000 0.000000 0.000000 0.000000 0.000000 0.000000 4.751534 1.948709 -29.580927 -1.641516 -1.287042 -0.142576 -27.914209 21.901318 30.650898 0.000000 0.000000 0.000000 4.708145 1.685355 -29.606392 1.874329 0.770895 0.581981 17.332146 -38.193431 26.848156 0.000000 0.000000 0.000000
17.370646 70.658934 368.936267 -0.667061 -0.860530 30.111632 -0.030176 -0.011212 -30.140961 0.094223 0.037242 -0.023505 1.780864 1.550931 0.403965 0.000000 0.000000 0.000000 2.611379 -8.693125 1.029796 -28.906102 -70.618241 -8.366662 -8.435065 -4.970886 22.769210 -0.702006 22.031791 -10.304269 0.000000 0.000000 0.000000 0.000000 0.000000 0.000000 37.712717 74.219635 0.628367 -91.229334 -10.226348 -20.617407 0.155763 -10.253453 -23.704150 -9.632326 -18.705275 -8.166327 0.000000 0.000000 0.000000 0.000000 0.000000 0.000000 4.319187 1.691825 -29.616734 -1.218990 -0.659643 0.042451 -32.291889 19.134129 34.219364 0.000000 0.000000 0.000000 4.259538 1.474142 -29.650287 2.003946 1.388617 0.615481 24.192327 -42.932125 35.031553 0.000000 0.000000 0.000000
17.449855 70.657176 368.905622 -0.576685 -0.763761 30.147761 -0.127024 -0.041960 -30.175136 0.075610 0.018057 -0.023939 1.472870 1.686922 0.431076 0.000000 0.000000 0.000000 2.528036 -8.977704 1.047614 -26.452175 -71.090286 -4.803578 -10.718832 -4.934419 20.726030 -0.488760 19.726424 -7.549446 0.000000 0.000000 0.000000 0.000000 0.000000 0.000000 37.243859 74.053340 0.987923 -91.010256 -10.116135 -20.681880 0.245254 -10.275068 -23.738018 -11.769862 -19.303130 -7.822829 0.000000 0.000000 0.000000 0.000000 0.000000 0.000000 4.014400 1.510099 -29.676029 -0.960448 -0.166902 0.172290 -29.718999 18.437080 31.146953 0.000000 0.000000 0.000000 3.951353 1.262477 -29.720491 1.656843 1.580056 0.542445 22.136829 -41.338598 32.820298 0.000000 0.000000 0.000000
17.533287 70.663389 368.857667 -0.489111 -0.659423 30.105311 -0.220437 -0.064258 -30.130926 0.052838 0.001617 -0.024761 1.255159 1.918779 0.509112 0.000000 0.000000 0.000000 2.525563 -9.104454 1.057874 -23.174364 -71.516741 -0.115423 -14.870816 -6.063484 17.601921 0.740991 19.424920 -6.173619 0.000000 0.000000 0.000000 0.000000 0.000000 0.000000 36.878122 73.806230 1.272851 -90.569859 -10.573171 -20.800431 1.361988 -11.733156 -23.010700 -13.309996 -20.490882 -4.288972 0.000000 0.000000 0.000000 0.000000 0.000000 0.000000 3.713943 1.345469 -29.655738 -0.926076 0.063596 0.202817 -31.850291 18.150528 33.330505 0.000000 0.000000 0.000000 3.631969 1.062286 -29.711929 1.065930 1.373324 0.409789 8.253741 -28.136658 18.891123 0.000000 0.000000 0.000000
17.618847 70.668115 368.774745 -0.406612 -0.529451 29.900946 -0.304506 -0.088181 -29.924826 0.029150 -0.019962 -0.025536 1.148449 2.048892 0.567584 0.000000 0.000000 0.000000 2.459797 -9.305338 1.066160 -20.024975 -71.536591 4.128815 -18.123024 -6.785213 15.158039 1.292180 18.007162 -4.391528 0.000000 0.000000 0.000000 0.000000 0.000000 0.000000 36.730665 73.674967 1.405978 -89.892628 -11.386553 -21.446104 3.080571 -13.560512 -22.033380 -13.001588 -22.118796 1.747893 0.000000 0.000000 0.000000 0.000000 0.000000 0.000000 3.438412 1.154548 -29.468573 -1.153195 -0.049228 0.114308 -31.144377 18.309901 33.066524 0.000000 0.000000 0.000000 3.324103 0.940949 -29.527371 0.186559 0.573942 0.182426 -0.221194 -10.960613 6.781849 0.000000 0.000000 0.000000
17.706633 70.666094 368.663093 -0.324917 -0.391397 29.606082 -0.372252 -0.107941 -29.628077 0.001310 -0.046114 -0.026194 1.074388 2.160375 0.627926 0.000000 0.000000 0.000000 2.354549 -9.614186 1.078839 -18.979931 -70.403180 5.028771 -19.441669 -9.735016 14.819660 2.560951 19.591952 -4.515720 0.000000 0.000000 0.000000 0.000000 0.000000 0.000000 36.818762 73.661884 1.366983 -89.209457 -12.675410 -22.137905 4.473515 -15.766763 -19.494591 -7.117198 -22.069232 8.918684 0.000000 0.000000 0.000000 0.000000 0.000000 0.000000 3.173329 1.026789 -29.187468 -1.401360 -0.510544 -0.046697 -27.728928 20.145068 30.441350 0.000000 0.000000 0.000000 3.026850 0.901995 -29.240422 -0.211581 -0.201906 0.052067 -0.827298 -5.765654 3.008770 0.000000 0.000000 0.000000
17.805920 70.661171 368.539257 -0.232608 -0.252628 29.316435 0.326513 0.106379 -29.317251 -0.574289 -0.646119 -0.048065 0.987532 2.216773 0.669395 0.000000 0.000000 0.000000 2.205759 -9.866436 1.080562 -18.758652 -70.434556 5.200295 -20.243878 -10.488514 14.488600 3.460480 19.587499 -3.748720 0.000000 0.000000 0.000000 0.000000 0.000000 0.000000 36.924990 73.625554 1.301495 -88.701917 -12.840148 -23.167772 3.117082 -14.161446 -19.422969 4.818576 -20.743926 10.130433 0.000000 0.000000 0.000000 0.000000 0.000000 0.000000 2.869645 0.928452 -28.915821 -1.494766 -0.782714 -0.140595 -21.846266 21.319579 24.975910 0.000000 0.000000 0.000000 2.758050 0.916893 -28.948913 -0.432552 -1.035929 -0.045901 3.057002 -8.433971 -0.452028 0.000000 0.000000 0.000000
